<svg width="17" height="17" viewBox="0 0 17 17" fill="none" xmlns="http://www.w3.org/2000/svg">
<path d="M4.40258 16.4292V6.06863H1.18006V16.4292H4.40258ZM2.77399 4.6826C3.81352 4.6826 4.64514 3.81632 4.64514 2.7768C4.64514 1.77193 3.81352 0.940308 2.77399 0.940308C1.76912 0.940308 0.9375 1.77193 0.9375 2.7768C0.9375 3.81632 1.76912 4.6826 2.77399 4.6826ZM16.4264 16.4292H16.4611V10.7465C16.4611 7.97442 15.8373 5.82607 12.5802 5.82607C11.0209 5.82607 9.98136 6.69234 9.5309 7.48931H9.49625V6.06863H6.41233V16.4292H9.63485V11.3009C9.63485 9.94952 9.87741 8.66744 11.5406 8.66744C13.2039 8.66744 13.2385 10.1921 13.2385 11.4049V16.4292H16.4264Z" fill="#1664F9"/>
</svg>
