<svg width="22" height="14" viewBox="0 0 22 14" fill="none" xmlns="http://www.w3.org/2000/svg">
<path d="M13.3655 5.92429H7.05908V8.21125H10.836C10.6974 9.18147 9.69254 11.0873 7.05908 11.0873C4.80678 11.0873 2.93564 9.21612 2.93564 6.85987C2.93564 4.53826 4.80678 2.66712 7.05908 2.66712C8.37581 2.66712 9.24208 3.22153 9.7272 3.70664L11.529 1.9741C10.3509 0.865275 8.86093 0.206909 7.05908 0.206909C3.3861 0.206909 0.406128 3.18688 0.406128 6.85987C0.406128 10.5675 3.3861 13.5128 7.05908 13.5128C10.9053 13.5128 13.4695 10.8447 13.4695 7.03312C13.4695 6.58266 13.4002 6.2708 13.3655 5.92429ZM19.7759 6.1322V4.2264H17.8355V6.1322H15.895V8.07264H17.8355V10.0131H19.7759V8.07264H21.7164V6.1322H19.7759Z" fill="#1664F9"/>
</svg>
