<svg width="19" height="15" viewBox="0 0 19 15" fill="none" xmlns="http://www.w3.org/2000/svg">
<path d="M16.8422 3.77594C17.5352 3.25618 18.159 2.63247 18.6441 1.9048C18.0203 2.18201 17.2927 2.38991 16.565 2.45921C17.3273 2.00875 17.8817 1.31574 18.159 0.449465C17.4659 0.865275 16.669 1.17713 15.872 1.35039C15.179 0.622719 14.2434 0.206909 13.2039 0.206909C11.1941 0.206909 9.56555 1.8355 9.56555 3.84524C9.56555 4.12245 9.6002 4.39966 9.6695 4.67686C6.65488 4.50361 3.95212 3.04828 2.15028 0.865275C1.83842 1.38504 1.66517 2.00875 1.66517 2.70177C1.66517 3.9492 2.28888 5.05802 3.29376 5.71639C2.70469 5.68174 2.11563 5.54313 1.63052 5.26593V5.30058C1.63052 7.06777 2.87795 8.5231 4.54118 8.86961C4.26398 8.93891 3.91747 9.00821 3.60561 9.00821C3.36306 9.00821 3.15515 8.97356 2.9126 8.93891C3.36306 10.3942 4.71444 11.4338 6.30838 11.4684C5.06095 12.4386 3.50166 13.0277 1.80377 13.0277C1.49191 13.0277 1.21471 12.9931 0.9375 12.9584C2.53144 13.9979 4.43723 14.587 6.51628 14.587C13.2039 14.587 16.8422 9.07752 16.8422 4.26105C16.8422 4.0878 16.8422 3.9492 16.8422 3.77594Z" fill="#1664F9"/>
</svg>
